<?xml version="1.0" standalone="no"?>
<!DOCTYPE svg PUBLIC "-//W3C//DTD SVG 20010904//EN"
 "http://www.w3.org/TR/2001/REC-SVG-20010904/DTD/svg10.dtd">
<svg version="1.0" xmlns="http://www.w3.org/2000/svg"
 width="50.000000pt" height="50.000000pt" viewBox="0 0 50.000000 50.000000"
 preserveAspectRatio="xMidYMid meet">

<g transform="translate(0.000000,50.000000) scale(0.100000,-0.100000)"
fill="#000000" stroke="none">
<path d="M123 426 c-17 -8 -38 -27 -46 -43 -16 -32 -24 -208 -9 -217 16 -10
31 38 34 112 5 101 21 116 129 121 142 6 175 -26 165 -163 -3 -44 -8 -98 -12
-118 -8 -48 9 -50 36 -5 16 26 20 50 20 130 0 106 -13 152 -51 175 -33 21
-226 26 -266 8z"/>
<path d="M146 354 c-18 -17 -23 -124 -7 -124 14 0 41 29 41 44 0 23 36 46 72
46 44 0 68 -25 68 -71 1 -21 10 -45 25 -64 l25 -30 0 92 c0 120 -3 123 -120
123 -67 0 -92 -4 -104 -16z m184 -24 c0 -5 -2 -10 -4 -10 -3 0 -8 5 -11 10 -3
6 -1 10 4 10 6 0 11 -4 11 -10z"/>
<path d="M216 284 c-24 -23 -20 -31 17 -36 17 -3 38 -7 46 -9 21 -6 25 26 6
45 -21 20 -49 21 -69 0z"/>
</g>
</svg>
